<svg xmlns="http://www.w3.org/2000/svg" viewBox="0 0 1600 900" fill="none">
  <defs>
    <linearGradient id="heroGradient" x1="0" y1="0" x2="1600" y2="900" gradientUnits="userSpaceOnUse">
      <stop offset="0" stop-color="#0E2E57"/>
      <stop offset="0.52" stop-color="#1F4D82"/>
      <stop offset="1" stop-color="#2A71AF"/>
    </linearGradient>
    <radialGradient id="glowOrange" cx="0" cy="0" r="1" gradientUnits="userSpaceOnUse" gradientTransform="translate(1210 220) rotate(132.356) scale(420 300)">
      <stop stop-color="#F6A35B" stop-opacity="0.9"/>
      <stop offset="1" stop-color="#F6A35B" stop-opacity="0"/>
    </radialGradient>
    <radialGradient id="glowBlue" cx="0" cy="0" r="1" gradientUnits="userSpaceOnUse" gradientTransform="translate(360 120) rotate(40) scale(520 320)">
      <stop stop-color="#6EB2EE" stop-opacity="0.55"/>
      <stop offset="1" stop-color="#6EB2EE" stop-opacity="0"/>
    </radialGradient>
    <pattern id="gridPattern" width="90" height="90" patternUnits="userSpaceOnUse">
      <path d="M90 0H0V90" stroke="white" stroke-opacity="0.08" stroke-width="1"/>
    </pattern>
  </defs>

  <rect width="1600" height="900" fill="url(#heroGradient)"/>
  <rect width="1600" height="900" fill="url(#gridPattern)"/>

  <ellipse cx="1210" cy="220" rx="430" ry="300" fill="url(#glowOrange)"/>
  <ellipse cx="360" cy="120" rx="520" ry="320" fill="url(#glowBlue)"/>

  <path d="M0 640C210 560 420 605 620 690C820 775 1030 820 1240 760C1390 718 1500 648 1600 620V900H0V640Z" fill="#0B2446" fill-opacity="0.52"/>
  <path d="M0 702C240 622 460 665 680 738C900 811 1110 850 1320 804C1425 782 1518 746 1600 710V900H0V702Z" fill="#0A1E3A" fill-opacity="0.56"/>
</svg>
